<svg width="65" height="60" viewBox="0 0 65 60" fill="none" xmlns="http://www.w3.org/2000/svg">
<g clip-path="url(#clip0_223_47)">
<path d="M16 40.0976C16.9014 42.5018 17.4966 42.4646 19.781 45.5622C22.6417 49.4412 31.8114 52.3928 31.8114 52.3928C31.8114 52.3928 39.0297 53.759 44.5293 52.3928C48.7229 51.3511 52.9764 49.5909 56.5597 45.5622C59.2632 42.5226 60.6179 40.3275 61.3719 36.3408C62.043 32.7918 62.3608 29.228 61.3719 25.7532C59.5234 19.2582 57.1163 16.5063 51.7475 13.458C44.5293 9.35962 35.2487 10.0427 35.2487 10.0427C35.2487 10.0427 27.7008 10.8251 23.9057 13.458C21.0998 15.4048 19.5923 16.5367 17.7187 19.2641" stroke="url(#paint0_linear_223_47)" stroke-width="7"/>
<path d="M46.5607 32.0607C47.1464 31.4749 47.1464 30.5251 46.5607 29.9393L37.0147 20.3934C36.4289 19.8076 35.4792 19.8076 34.8934 20.3934C34.3076 20.9792 34.3076 21.9289 34.8934 22.5147L43.3787 31L34.8934 39.4853C34.3076 40.0711 34.3076 41.0208 34.8934 41.6066C35.4792 42.1924 36.4289 42.1924 37.0147 41.6066L46.5607 32.0607ZM5 31L5 32.5L8.375 32.5L8.375 31L8.375 29.5L5 29.5L5 31ZM15.125 31L15.125 32.5L21.875 32.5L21.875 31L21.875 29.5L15.125 29.5L15.125 31ZM28.625 31L28.625 32.5L35.375 32.5L35.375 31L35.375 29.5L28.625 29.5L28.625 31ZM42.125 31L42.125 32.5L45.5 32.5L45.5 31L45.5 29.5L42.125 29.5L42.125 31Z" fill="#E0E0E0"/>
</g>
<defs>
<linearGradient id="paint0_linear_223_47" x1="39" y1="10" x2="39" y2="53" gradientUnits="userSpaceOnUse">
<stop stop-color="#FA3DF4"/>
<stop offset="1" stop-color="#E50F0F"/>
</linearGradient>
<clipPath id="clip0_223_47">
<rect width="65" height="60" fill="white"/>
</clipPath>
</defs>
</svg>
